<?xml version="1.0" encoding="utf-8"?>
<!-- Generator: Adobe Illustrator 25.4.1, SVG Export Plug-In . SVG Version: 6.00 Build 0)  -->
<svg version="1.1" id="icons" xmlns="http://www.w3.org/2000/svg" xmlns:xlink="http://www.w3.org/1999/xlink" x="0px" y="0px"
	 viewBox="0 0 37.71 37.71" style="enable-background:new 0 0 37.71 37.71;" xml:space="preserve">
<style type="text/css">
	.st0{fill:#79CBC1;}
</style>
<g>
	<g>
		<path class="st0" d="M24.07,0l-3.06,1.79h-3.06c2.24,1.41,3.38,4.15,3.38,6.69c0,6.01-5.08,6.46-5.08,9.45
			c0,2.92,6.8,4.08,6.8,10.42c0,2.61-1.25,4.71-3.17,6.39c-2.61,2.24-6.16,2.97-9.52,2.97C6.12,37.71,0,35.9,0,30.64
			c0-1.07,0.36-2.11,0.84-3.06c2.02-4.08,8.32-5.12,12.37-5.24c-0.75-0.97-1.45-2.11-1.45-3.38c0-0.75,0.27-1.25,0.5-1.95
			c-0.54,0.07-1.07,0.11-1.59,0.11c-4.4,0-8.2-3.24-8.2-7.8c0-4.31,3.33-7.98,7.46-8.88C11.31,0.16,12.74,0,14.16,0H24.07z
			 M14.57,23.75c-0.39-0.05-0.75-0.05-1.13-0.05c-3.72,0-9.25,1.18-9.25,5.89c0,4.35,4.9,6.03,8.52,6.03c3.38,0,7.14-1.36,7.14-5.33
			C19.85,27.13,16.88,25.36,14.57,23.75z M11.08,1.63c-2.97,0-4.42,2.63-4.42,5.3c0,3.44,2.27,8.84,6.3,8.84
			c3.1,0,4.17-2.24,4.17-5.01C17.13,7.32,15.27,1.63,11.08,1.63z M37.71,8.7h-5.8v5.8h-2.9V8.7h-5.8V5.8h5.8V0h2.9v5.8h5.8V8.7z"/>
	</g>
</g>
</svg>
