<?xml version="1.0" encoding="utf-8"?>
<!-- Generator: Adobe Illustrator 25.4.1, SVG Export Plug-In . SVG Version: 6.00 Build 0)  -->
<svg version="1.1" id="icons" xmlns="http://www.w3.org/2000/svg" xmlns:xlink="http://www.w3.org/1999/xlink" x="0px" y="0px"
	 viewBox="0 0 38.57 36.86" style="enable-background:new 0 0 38.57 36.86;" xml:space="preserve">
<style type="text/css">
	.st0{fill:#79CBC1;}
</style>
<g>
	<path class="st0" d="M4.62,8.59H4.57C1.78,8.59,0,6.68,0,4.29C0,1.86,1.86,0,4.67,0c2.84,0,4.6,1.86,4.62,4.29
		C9.32,6.68,7.51,8.59,4.62,8.59z M8.76,36.86H0.48V11.98h8.29V36.86z M38.57,36.86h-8.26V23.55c0-3.34-1.21-5.62-4.19-5.62
		c-2.29,0-3.64,1.53-4.24,3.01c-0.2,0.55-0.28,1.28-0.28,2.03v13.89h-8.26c0.1-22.55,0-24.88,0-24.88h8.26v3.62h-0.05
		c1.08-1.71,3.04-4.19,7.51-4.19c5.45,0,9.52,3.57,9.52,11.2V36.86z"/>
</g>
</svg>
