<?xml version="1.0" encoding="utf-8"?>
<!-- Generator: Adobe Illustrator 25.4.1, SVG Export Plug-In . SVG Version: 6.00 Build 0)  -->
<svg version="1.1" id="icons" xmlns="http://www.w3.org/2000/svg" xmlns:xlink="http://www.w3.org/1999/xlink" x="0px" y="0px"
	 viewBox="0 0 39.57 32.14" style="enable-background:new 0 0 39.57 32.14;" xml:space="preserve">
<style type="text/css">
	.st0{fill:#79CBC1;}
</style>
<g>
	<path class="st0" d="M35.51,8.01c0.03,0.35,0.03,0.7,0.03,1.05c0,10.72-8.16,23.08-23.08,23.08c-4.6,0-8.86-1.33-12.45-3.64
		c0.65,0.08,1.28,0.1,1.96,0.1c3.79,0,7.28-1.28,10.07-3.47c-3.57-0.08-6.55-2.41-7.58-5.62c0.5,0.08,1,0.13,1.53,0.13
		c0.73,0,1.46-0.1,2.13-0.28c-3.72-0.75-6.5-4.02-6.5-7.96c0-0.03,0-0.08,0-0.1c1.08,0.6,2.34,0.98,3.67,1.03
		c-2.18-1.46-3.62-3.94-3.62-6.75c0-1.51,0.4-2.89,1.1-4.09c3.99,4.92,9.99,8.14,16.72,8.49c-0.13-0.6-0.2-1.23-0.2-1.86
		C19.28,3.64,22.9,0,27.4,0c2.34,0,4.44,0.98,5.93,2.56c1.83-0.35,3.59-1.03,5.15-1.96c-0.6,1.88-1.88,3.47-3.57,4.47
		c1.63-0.18,3.21-0.63,4.67-1.26C38.47,5.42,37.09,6.86,35.51,8.01z"/>
</g>
</svg>
